<svg xmlns="http://www.w3.org/2000/svg" viewBox="0 0 24 24" width="512" height="512">
    <defs>
        <linearGradient id="appGradient" x1="0%" y1="0%" x2="100%" y2="100%">
            <stop offset="0%" stop-color="#4B6E8C" />
            <stop offset="100%" stop-color="#2C3E50" />
        </linearGradient>

        <linearGradient id="rimLight" x1="0%" y1="0%" x2="0%" y2="100%">
            <stop offset="0%" stop-color="#7CA3C8" stop-opacity="0.8" />
            <stop offset="100%" stop-color="#1A252F" stop-opacity="0.4" />
        </linearGradient>
    </defs>

    <rect x="1" y="1" width="22" height="22" rx="6" fill="url(#appGradient)" stroke="url(#rimLight)" stroke-width="0.4" />

    <g fill="none" stroke="#111820" stroke-width="2.2" stroke-linecap="round" stroke-linejoin="round" opacity="0.35">
        <path d="M 6.5 10.5 L 9 13 L 13.5 7.5" transform="translate(0, 0.6)"/>
        <path d="M 15.5 10.25 L 18 10.25" transform="translate(0, 0.6)"/>
        <path d="M 6.5 17.5 L 9 20 L 13.5 14.5" transform="translate(0, 0.6)"/>
        <path d="M 15.5 17.25 L 18 17.25" transform="translate(0, 0.6)"/>
    </g>

    <g fill="none" stroke="#FFFFFF" stroke-width="2.2" stroke-linecap="round" stroke-linejoin="round">
        <path d="M 6.5 10.5 L 9 13 L 13.5 7.5" />
        <path d="M 15.5 10.25 L 18 10.25" />
        <path d="M 6.5 17.5 L 9 20 L 13.5 14.5" />
        <path d="M 15.5 17.25 L 18 17.25" />
    </g>
</svg>